<?xml version="1.0" encoding="UTF-8"?>
                <svg xmlns="http://www.w3.org/2000/svg"
                version="1.1" baseProfile="full"
                viewBox="-84.47235 -323.36615 168.9447 352.7631">
<g stroke="black" stroke-width="0.3527631" fill="none">
<path d="M0 0 L0 -10 L0 -20 L0 -30 L0 -40 L0 -50 L0 -60 L0 -70 L0 -80 L-3.4202015 -89.39693 L-6.840403 -98.79385 L-10.260605 -108.19078 L-13.680806 -117.58771 L-20.108683 -125.24815 L-26.53656 -132.9086 L-35.196815 -137.9086" />
<path d="M-35.196815 -137.9086 L-43.85707 -142.9086" />
<path d="M-26.53656 -132.9086 L-32.964436 -140.56905 L-39.39231 -148.22949 L-42.81251 -157.62642" />
<path d="M-42.81251 -157.62642 L-46.23271 -167.02335" />
<path d="M-39.39231 -148.22949 L-48.052567 -153.22949" />
<path d="M-48.052567 -153.22949 L-56.712822 -158.22949" />
<path d="M-13.680806 -117.58771 L-17.101007 -126.984634 L-20.52121 -136.38156 L-23.941412 -145.77849 L-27.361614 -155.17542 L-27.361614 -165.17542 L-27.361614 -175.17542 L-30.781816 -184.57234" />
<path d="M-30.781816 -184.57234 L-34.20202 -193.96927" />
<path d="M-27.361614 -175.17542 L-27.361614 -185.17542 L-27.361614 -195.17542 L-23.941412 -204.57234" />
<path d="M-23.941412 -204.57234 L-20.52121 -213.96927" />
<path d="M-27.361614 -195.17542 L-30.781816 -204.57234" />
<path d="M-30.781816 -204.57234 L-34.20202 -213.96927" />
<path d="M-27.361614 -155.17542 L-33.78949 -162.83586 L-40.217365 -170.4963 L-48.87762 -175.4963" />
<path d="M-48.87762 -175.4963 L-57.537876 -180.4963" />
<path d="M-40.217365 -170.4963 L-46.64524 -178.15675 L-53.073116 -185.8172 L-56.493317 -195.21413" />
<path d="M-56.493317 -195.21413 L-59.913517 -204.61105" />
<path d="M-53.073116 -185.8172 L-61.73337 -190.8172" />
<path d="M-61.73337 -190.8172 L-70.39362 -195.8172" />
<path d="M0 -80 L0 -90 L0 -100 L0 -110 L0 -120 L0 -130 L0 -140 L0 -150 L0 -160 L3.4202015 -169.39693 L6.840403 -178.79385 L10.260605 -188.19078 L13.680806 -197.5877 L13.680806 -207.5877 L13.680806 -217.5877 L10.260605 -226.98463" />
<path d="M10.260605 -226.98463 L6.8404036 -236.38156" />
<path d="M13.680806 -217.5877 L13.680806 -227.5877 L13.680806 -237.5877 L17.101007 -246.98463" />
<path d="M17.101007 -246.98463 L20.52121 -256.38156" />
<path d="M13.680806 -237.5877 L10.260605 -246.98463" />
<path d="M10.260605 -246.98463 L6.8404036 -256.38156" />
<path d="M13.680806 -197.5877 L17.101007 -206.98463 L20.52121 -216.38156 L23.941412 -225.77849 L27.361614 -235.17542 L33.78949 -242.83586 L40.217365 -250.4963 L43.637566 -259.89322" />
<path d="M43.637566 -259.89322 L47.057766 -269.29013" />
<path d="M40.217365 -250.4963 L46.64524 -258.15674 L53.073116 -265.81717 L61.73337 -270.81717" />
<path d="M61.73337 -270.81717 L70.39362 -275.81717" />
<path d="M53.073116 -265.81717 L56.493317 -275.21408" />
<path d="M56.493317 -275.21408 L59.913517 -284.611" />
<path d="M27.361614 -235.17542 L27.361614 -245.17542 L27.361614 -255.17542 L23.941412 -264.57233" />
<path d="M23.941412 -264.57233 L20.52121 -273.96924" />
<path d="M27.361614 -255.17542 L27.361614 -265.1754 L27.361614 -275.1754 L30.781816 -284.57233" />
<path d="M30.781816 -284.57233 L34.20202 -293.96924" />
<path d="M27.361614 -275.1754 L23.941412 -284.57233" />
<path d="M23.941412 -284.57233 L20.52121 -293.96924" />
<path d="M0 -160 L-3.4202015 -169.39693 L-6.840403 -178.79385 L-10.260605 -188.19078 L-13.680806 -197.5877 L-20.108683 -205.24815 L-26.53656 -212.9086 L-35.196815 -217.9086" />
<path d="M-35.196815 -217.9086 L-43.85707 -222.9086" />
<path d="M-26.53656 -212.9086 L-32.964436 -220.56905 L-39.39231 -228.22949 L-42.81251 -237.62642" />
<path d="M-42.81251 -237.62642 L-46.23271 -247.02335" />
<path d="M-39.39231 -228.22949 L-48.052567 -233.22949" />
<path d="M-48.052567 -233.22949 L-56.712822 -238.22949" />
<path d="M-13.680806 -197.5877 L-17.101007 -206.98463 L-20.52121 -216.38156 L-23.941412 -225.77849 L-27.361614 -235.17542 L-27.361614 -245.17542 L-27.361614 -255.17542 L-30.781816 -264.57233" />
<path d="M-30.781816 -264.57233 L-34.20202 -273.96924" />
<path d="M-27.361614 -255.17542 L-27.361614 -265.1754 L-27.361614 -275.1754 L-23.941412 -284.57233" />
<path d="M-23.941412 -284.57233 L-20.52121 -293.96924" />
<path d="M-27.361614 -275.1754 L-30.781816 -284.57233" />
<path d="M-30.781816 -284.57233 L-34.20202 -293.96924" />
<path d="M-27.361614 -235.17542 L-33.78949 -242.83586 L-40.217365 -250.4963 L-48.87762 -255.4963" />
<path d="M-48.87762 -255.4963 L-57.537876 -260.4963" />
<path d="M-40.217365 -250.4963 L-46.64524 -258.15674 L-53.073116 -265.81717 L-56.493317 -275.21408" />
<path d="M-56.493317 -275.21408 L-59.913517 -284.611" />
<path d="M-53.073116 -265.81717 L-61.73337 -270.81717" />
<path d="M-61.73337 -270.81717 L-70.39362 -275.81717" />
<path d="M-70.39362 -275.81717" />
</g>
</svg>
